<svg width="32" height="32" viewBox="0 0 32 32" fill="none" xmlns="http://www.w3.org/2000/svg">
<g clip-path="url(#clip0_6109_29536)">
<rect width="32" height="32" rx="8" fill="white"/>
<rect width="32" height="32" rx="8" fill="url(#paint0_linear_6109_29536)"/>
<path opacity="0.4" fill-rule="evenodd" clip-rule="evenodd" d="M15.9998 2.03861C8.28923 2.03861 2.03861 8.28923 2.03861 15.9998C2.03861 23.7103 8.28923 29.9609 15.9998 29.9609C23.7103 29.9609 29.9609 23.7103 29.9609 15.9998C29.9609 8.28923 23.7103 2.03861 15.9998 2.03861ZM1.96094 15.9998C1.96094 8.24634 8.24634 1.96094 15.9998 1.96094C23.7532 1.96094 30.0386 8.24634 30.0386 15.9998C30.0386 23.7532 23.7532 30.0386 15.9998 30.0386C8.24634 30.0386 1.96094 23.7532 1.96094 15.9998Z" fill="#D0D5DD" fill-opacity="0.5"/>
<path opacity="0.4" fill-rule="evenodd" clip-rule="evenodd" d="M16 12.0777C13.8338 12.0777 12.0777 13.8338 12.0777 16C12.0777 18.1662 13.8338 19.9223 16 19.9223C18.1662 19.9223 19.9223 18.1662 19.9223 16C19.9223 13.8338 18.1662 12.0777 16 12.0777ZM12 16C12 13.7909 13.7909 12 16 12C18.2091 12 20 13.7909 20 16C20 18.2091 18.2091 20 16 20C13.7909 20 12 18.2091 12 16Z" fill="#D0D5DD"/>
<path opacity="0.4" fill-rule="evenodd" clip-rule="evenodd" d="M16 13.3199C14.52 13.3199 13.3203 14.5196 13.3203 15.9995C13.3203 17.4794 14.52 18.6791 16 18.6791C17.4799 18.6791 18.6796 17.4794 18.6796 15.9995C18.6796 14.5196 17.4799 13.3199 16 13.3199ZM13.2427 15.9995C13.2427 14.4767 14.4772 13.2422 16 13.2422C17.5228 13.2422 18.7572 14.4767 18.7572 15.9995C18.7572 17.5223 17.5228 18.7568 16 18.7568C14.4772 18.7568 13.2427 17.5223 13.2427 15.9995Z" fill="#D0D5DD"/>
<path opacity="0.4" d="M15.9609 0H16.0386V32H15.9609V0Z" fill="#D0D5DD"/>
<path opacity="0.4" d="M32 15.9609L32 16.0386L-3.39506e-09 16.0386L0 15.9609L32 15.9609Z" fill="#D0D5DD"/>
<path opacity="0.4" d="M26.6021 0H26.6797V32H26.6021V0Z" fill="#D0D5DD"/>
<path opacity="0.4" d="M10.6406 0H10.7183V32H10.6406V0Z" fill="#D0D5DD"/>
<path opacity="0.4" d="M21.2817 0H21.3594V32H21.2817V0Z" fill="#D0D5DD"/>
<path opacity="0.4" d="M5.32031 0H5.39798V32H5.32031V0Z" fill="#D0D5DD"/>
<path opacity="0.4" d="M32 26.6016L32 26.6792L-3.39506e-09 26.6792L0 26.6016L32 26.6016Z" fill="#D0D5DD"/>
<path opacity="0.4" d="M32 10.6406L32 10.7183L-3.39506e-09 10.7183L0 10.6406L32 10.6406Z" fill="#D0D5DD"/>
<path opacity="0.4" d="M32 21.2812L32 21.3589L-3.39506e-09 21.3589L0 21.2812L32 21.2812Z" fill="#D0D5DD"/>
<path opacity="0.4" d="M32 5.32031L32 5.39798L-3.39506e-09 5.39798L0 5.32031L32 5.32031Z" fill="#D0D5DD"/>
<g clip-path="url(#clip1_6109_29536)">
<path d="M18.5675 14.9688C15.0875 14.9831 11.9874 15.9489 11.0651 19.2492H14.9198C15.4537 18.2548 16.6226 18.0608 17.9141 18.0425C19.2095 18.0425 20.2348 18.2651 20.3853 19.2149H24.2492C24.7058 15.9552 22.0492 14.9762 18.5675 14.9688ZM19.4212 22.7064C18.8742 23.6562 17.7458 23.885 16.4504 23.885C15.3879 23.8702 14.4632 23.7706 14.1119 23.1876H10.0643C9.92699 26.0799 12.511 26.9445 15.7981 26.9514C19.2821 26.9525 22.3547 25.9735 23.2874 22.7064H19.4212Z" fill="white"/>
<path d="M17.6061 19.6869L16.9544 22.7526H5.63379L7.57005 13.1709H11.3419L10.0567 19.6869H17.6061Z" fill="white"/>
<path d="M24.9301 7.27195C25.3106 5.58802 24.0867 4.67425 22.4085 4.68169H9.30846L7.65771 12.6161H11.4198L11.5342 12.0508L11.7866 10.7554H20.7647C21.0891 10.7554 21.2853 11.0798 21.2173 11.4031C21.1492 11.7264 20.8127 12.0508 20.4894 12.0508H12.1167L11.7414 14.3538H21.0679C22.7307 14.3538 24.3477 13.4475 24.6858 11.7561C24.9444 10.5397 24.3877 9.70486 23.3698 9.35297C24.1497 8.91296 24.7339 8.2006 24.9301 7.27195ZM21.3151 7.62555C21.2464 7.94884 20.9094 8.28013 20.5856 8.28013H12.3141L12.5911 6.97785H20.8625C21.1858 6.97785 21.3832 7.30113 21.3151 7.62555Z" fill="white"/>
<path d="M5.48521 23.7979L5 26.0791H8.25857L8.74378 23.7979H5.48521Z" fill="white"/>
</g>
</g>
<rect x="0.1" y="0.1" width="31.8" height="31.8" rx="7.9" stroke="#D0D5DD" stroke-width="0.2"/>
<defs>
<linearGradient id="paint0_linear_6109_29536" x1="16" y1="0" x2="16" y2="32" gradientUnits="userSpaceOnUse">
<stop/>
<stop offset="1"/>
</linearGradient>
<clipPath id="clip0_6109_29536">
<rect width="32" height="32" rx="8" fill="white"/>
</clipPath>
<clipPath id="clip1_6109_29536">
<rect width="20" height="22.2716" fill="white" transform="translate(5 4.68164)"/>
</clipPath>
</defs>
</svg>
