<?xml version="1.0" encoding="utf-8"?>
<!-- Generator: Adobe Illustrator 23.1.0, SVG Export Plug-In . SVG Version: 6.00 Build 0)  -->
<svg version="1.1" id="Layer_1" xmlns="http://www.w3.org/2000/svg" xmlns:xlink="http://www.w3.org/1999/xlink" x="0px" y="0px"
	 viewBox="0 0 20 22" style="enable-background:new 0 0 20 22;" xml:space="preserve">
<style type="text/css">
	.st0{fill:none;stroke:#A0A0AB;stroke-width:2;stroke-linecap:round;stroke-linejoin:round;}
</style>
<path class="st0" d="M19,10.5V7.8c0-1.7,0-2.5-0.3-3.2c-0.3-0.6-0.7-1-1.3-1.3C16.7,3,15.9,3,14.2,3H5.8C4.1,3,3.3,3,2.6,3.3
	c-0.6,0.3-1,0.7-1.3,1.3C1,5.3,1,6.1,1,7.8v8.4c0,1.7,0,2.5,0.3,3.2c0.3,0.6,0.7,1,1.3,1.3C3.3,21,4.1,21,5.8,21h4.7 M19,9H1 M14,1
	v4 M6,1v4 M16,20v-6 M13,17h6"/>
</svg>
