<?xml version="1.0" encoding="utf-8"?>
<!-- Generator: Adobe Illustrator 23.1.0, SVG Export Plug-In . SVG Version: 6.00 Build 0)  -->
<svg version="1.1" id="Layer_1" xmlns="http://www.w3.org/2000/svg" xmlns:xlink="http://www.w3.org/1999/xlink" x="0px" y="0px"
	 viewBox="0 0 20 20" style="enable-background:new 0 0 20 20;" xml:space="preserve">
<style type="text/css">
	.st0{fill:none;stroke:#12B76A;stroke-width:2;stroke-linecap:round;stroke-linejoin:round;}
</style>
<path class="st0" d="M6,13v2 M10,9v6 M14,5v10 M5.8,19h8.4c1.7,0,2.5,0,3.2-0.3c0.6-0.3,1-0.7,1.3-1.3c0.3-0.6,0.3-1.5,0.3-3.2V5.8
	c0-1.7,0-2.5-0.3-3.2c-0.3-0.6-0.7-1-1.3-1.3C16.7,1,15.9,1,14.2,1H5.8C4.1,1,3.3,1,2.6,1.3c-0.6,0.3-1,0.7-1.3,1.3
	C1,3.3,1,4.1,1,5.8v8.4c0,1.7,0,2.5,0.3,3.2c0.3,0.6,0.7,1,1.3,1.3C3.3,19,4.1,19,5.8,19z"/>
</svg>
