<svg width="32" height="32" viewBox="0 0 32 32" fill="none" xmlns="http://www.w3.org/2000/svg">
<g clip-path="url(#clip0_5273_247338)">
<rect width="32" height="32" rx="8" fill="url(#paint0_linear_5273_247338)"/>
<g clip-path="url(#clip1_5273_247338)">
<path fill-rule="evenodd" clip-rule="evenodd" d="M19.297 5.14748C20.071 5.15308 20.1532 6.06579 19.9429 6.90615C19.7711 7.59466 19.4661 8.18282 18.9021 8.37768C18.7229 9.2158 18.7146 10.2241 18.615 11.1413C18.8275 11.4399 19.1812 11.5906 19.4764 11.7875C20.3571 12.3748 21.248 13.0378 22.1325 13.6537C23.1404 13.7502 24.2775 13.8604 25.0754 14.228C25.7921 14.5581 26.2797 15.1091 26.6905 15.7714C27.0735 16.388 27.5154 17.173 27.5879 17.9966C27.6713 18.9447 27.557 20.0995 27.3725 20.9397C27.3142 21.2046 27.1613 21.5189 27.1572 21.7653C27.1541 21.9572 27.2721 22.29 27.3364 22.555C27.6726 23.9399 27.7935 25.3684 27.6948 26.7902C27.656 27.362 27.5089 27.9743 27.5512 28.513C27.5882 28.9814 27.8598 29.4631 28.0177 29.8768C28.2023 30.3595 28.3217 30.8048 28.3761 31.3483C28.4852 32.4234 28.3383 33.5534 28.1248 34.6144C27.8238 36.1117 27.5508 37.695 27.4081 39.388C27.3597 39.96 27.2815 40.5751 27.3003 41.1108C27.3192 41.6466 27.4961 42.2195 27.5877 42.7618C27.7082 43.4765 27.9584 44.2479 27.7313 44.8795C27.6569 45.086 27.557 45.1758 27.3729 45.3819C27.2491 45.5201 27.1774 45.7281 27.0499 45.8845C26.9299 46.0314 26.7409 46.1028 26.5834 46.2793C26.3802 46.5067 26.3052 46.678 26.1885 46.71C25.8593 46.7996 25.4046 46.6485 25.1119 46.5665C24.8471 46.4923 24.4516 46.3774 24.2863 46.2081C24.0941 46.0108 24.1158 45.7189 23.9991 45.4914C23.8616 45.2226 23.6392 45.2016 23.4965 45.0248C23.1281 47.8344 22.7261 50.5743 21.7379 52.8493C21.5587 53.2621 21.3235 53.6724 21.2713 54.1772C21.2147 54.726 21.3179 55.2888 21.2355 55.8642C21.2001 56.1106 21.0861 56.3711 21.0919 56.6179C21.1024 57.0598 21.3336 57.5456 21.4503 58.0175C21.7777 59.3372 22.0884 60.8844 22.0962 62.5399C22.1065 64.7324 21.4973 66.7085 20.9477 68.5698C20.5669 69.8621 20.1651 71.3782 19.9069 72.9127C19.8074 73.5038 19.6242 74.167 19.7277 74.7072C19.8144 75.163 20.1884 75.6378 20.5172 76.071C20.7678 76.4014 20.9591 76.6309 21.3067 76.8966C21.4254 76.9862 21.5556 77.1528 21.6651 77.1837C22.2331 77.3432 22.937 77.5056 22.9211 78.0451C22.9122 78.3587 22.6844 78.4976 22.1318 78.5117C21.7249 78.522 21.3186 78.5117 20.9114 78.5117C20.076 78.5117 19.1599 78.6367 18.47 78.5475C18.2781 78.5229 18.1186 78.3907 17.8599 78.3683C17.2702 78.3146 16.7029 78.5144 16.4959 78.1892C16.2336 77.7764 16.8332 76.603 16.8191 76.1075C16.8108 75.8199 16.6684 75.5301 16.6753 75.2461C16.6863 74.8114 16.8993 74.3549 16.9627 73.8821C17.2691 71.5919 17.1699 68.4213 16.7474 66.2373C16.575 65.3463 16.2323 64.514 16.1729 63.5453C16.0511 63.7538 16.0739 63.9933 16.0294 64.2273C15.9039 64.8876 15.6885 65.5472 15.5628 66.2373C15.1626 68.4345 15.0784 71.5386 15.4192 73.8821C15.4523 74.1123 15.5002 74.3401 15.5628 74.5641C15.6168 74.763 15.6972 75.012 15.7064 75.21C15.7196 75.512 15.5644 75.7953 15.5628 76.0714C15.5583 76.8079 16.1004 77.4234 15.9212 78.1892C15.7543 78.4989 15.0656 78.3392 14.5932 78.3683C14.3072 78.386 14.1435 78.5475 13.8037 78.5475H11.4725C10.6974 78.5475 9.6039 78.6635 9.49841 78.2245C9.37679 77.7184 9.90448 77.4447 10.2521 77.3273C10.3751 77.2856 10.5341 77.2814 10.683 77.2196C11.1113 77.0419 11.5901 76.5208 11.8672 76.1429C12.1212 75.7969 12.5839 75.1883 12.6569 74.7072C12.7326 74.2064 12.5792 73.5873 12.4778 73.0202C12.2135 71.5462 11.7886 69.9213 11.4009 68.6056C10.8528 66.7453 10.1806 64.8309 10.1806 62.504C10.1806 60.6072 10.5668 58.9246 10.9702 57.3358C11.0259 57.1171 11.1413 56.884 11.1493 56.6896C11.167 56.2835 10.9664 55.8396 10.9341 55.3975C10.898 54.9007 10.9789 54.2776 10.8624 53.8542C10.6833 53.1971 10.2947 52.5856 10.0727 51.8801C9.44555 49.8881 8.88001 47.4828 8.67306 45.0967C8.55233 45.1144 8.35232 45.264 8.24212 45.3837C8.06899 45.5727 8.05085 46.0854 7.84748 46.2811C7.64769 46.4733 7.27656 46.5253 6.98606 46.6041C6.58469 46.7127 6.02296 46.9439 5.72977 46.6041C5.68497 46.5526 5.66863 46.4066 5.58643 46.317C5.45562 46.1747 5.26009 46.0905 5.11966 45.9221C4.82849 45.574 4.52813 45.3044 4.40181 44.9529C4.21434 44.43 4.38434 43.6431 4.50954 42.9071C4.60182 42.3644 4.76062 41.8097 4.79668 41.3639C4.84036 40.8244 4.74091 40.2111 4.68895 39.6053C4.54605 37.9351 4.28153 36.3061 3.97222 34.7597C3.76146 33.7086 3.52606 32.6698 3.64925 31.4579C3.70434 30.9147 3.83425 30.4343 4.00761 29.9503C4.16932 29.5005 4.43877 29.032 4.47415 28.5865C4.51537 28.0621 4.32812 27.4791 4.29497 26.8995C4.20538 25.3684 4.32812 23.8758 4.61795 22.6285C4.67775 22.3713 4.79713 22.0909 4.79713 21.8748C4.79713 21.6284 4.67775 21.3372 4.61795 21.085C4.44616 20.3629 4.32364 19.3962 4.33081 18.4645C4.3382 17.4729 4.73598 16.6698 5.15639 15.9521C5.54992 15.2802 6.10896 14.6054 6.80733 14.2654C7.41005 13.9717 8.19218 13.8571 8.92481 13.7628C9.16603 13.7319 9.25136 13.7603 9.50267 13.6911C9.76047 13.6199 10.2805 13.341 10.5399 13.1535C11.3516 12.5647 12.245 12.052 13.1208 11.4666C12.9768 10.4862 13.0113 9.3269 12.7978 8.41576C12.6988 8.28137 12.3723 8.21642 12.2235 8.02089C12.1006 7.85917 11.8329 7.24906 11.757 6.98006C11.5366 6.19995 11.576 5.13337 12.4029 5.18556C12.3447 4.70333 12.2291 4.28002 12.2238 3.8576C12.209 2.74555 12.9199 1.7661 13.6595 1.23706C14.1827 0.863244 14.9695 0.505328 15.7053 0.447542C17.3072 0.318755 18.9402 1.58109 19.3677 3.02888C19.5751 3.72993 19.4125 4.3929 19.2961 5.14658L19.297 5.14748ZM22.1325 27.1132C22.0145 27.3692 21.7966 27.6424 21.7742 27.8299C21.7533 27.9952 21.819 28.3143 21.8458 28.5477C21.9578 29.5592 22.0949 30.7217 21.8817 31.6344C22.6002 32.7749 22.3816 34.4359 22.6353 35.9054C22.7155 36.3679 22.8604 36.8369 22.9585 37.2694C23.3942 39.1905 23.3763 41.3057 23.5328 43.4427C23.7194 42.781 24.1996 42.2211 24.4301 41.5046C24.5645 41.0898 24.622 40.5502 24.6814 40.0331C24.7412 39.5114 24.8288 38.9338 24.825 38.418C24.8189 37.6396 24.5179 36.9675 24.2507 36.2286C24.0061 35.5531 23.798 34.8121 23.6045 34.1109C23.2553 32.8454 23.2508 31.6359 23.5328 30.4858C23.6755 29.9035 23.9535 29.0268 23.82 28.3323C23.7136 27.7802 23.4146 27.2193 23.2824 26.6094C23.1527 26.015 23.0634 25.176 22.9594 24.5997C22.7404 25.4176 22.477 26.3655 22.1341 27.112L22.1325 27.1132ZM8.70889 26.7548C8.57451 27.3864 8.23137 27.9555 8.17135 28.5495C8.07795 29.4627 8.42623 30.0013 8.56622 30.667C8.86859 32.1049 8.67821 33.5035 8.27908 34.7586C8.09766 35.3289 7.95207 35.9576 7.74153 36.5534C7.5142 37.1937 7.28171 37.77 7.27499 38.4556C7.27051 38.9239 7.35697 39.4124 7.41856 39.8913C7.4806 40.3737 7.52002 40.866 7.6338 41.2909C7.84792 42.0901 8.30708 42.7674 8.63879 43.4803C8.71785 41.3395 8.70979 39.2852 9.0695 37.5583C9.19336 36.9643 9.38665 36.3713 9.46437 35.8355C9.63325 34.6708 9.53828 33.5023 9.82273 32.5334C9.91456 32.2216 10.122 31.8998 10.1459 31.6003C10.1699 31.3009 10.0516 30.9716 10.0382 30.667C9.99631 29.7164 10.1403 28.7697 10.2534 27.8317C9.65856 26.9432 9.37634 25.742 8.99737 24.6373C8.92436 25.3764 8.85448 26.0797 8.71024 26.7548H8.70889ZM15.9949 42.2959C15.9516 45.7651 15.9245 49.14 15.4923 52.202C15.4307 52.6398 15.2235 53.0755 15.2412 53.4583C15.2537 53.7452 15.4381 54.0516 15.4923 54.3555C15.6242 55.0926 15.6134 55.9543 15.5283 56.6885C15.4788 57.1154 15.3283 57.486 15.3491 57.9089C15.3771 58.4836 15.6155 58.9878 15.7799 59.524C15.9543 60.0916 16.0578 60.6468 16.1382 61.2108C16.1035 60.0333 16.934 58.9813 16.8921 57.7293C16.8767 57.2726 16.7049 56.8206 16.6764 56.3655C16.6397 55.7715 16.6115 55.1146 16.6764 54.5349C16.7181 54.1645 16.9616 53.7846 16.9638 53.4224C16.9658 53.0538 16.7801 52.6304 16.7125 52.202C16.2285 49.1364 16.1973 45.6567 16.1382 42.2601C16.0896 42.2715 16.0697 42.3111 15.9946 42.2959H15.9949Z" fill="#6B6B7B"/>
<path fill-rule="evenodd" clip-rule="evenodd" d="M13.5509 13.0128C13.3887 12.9416 13.3728 12.6847 13.3354 12.5102C13.2893 12.2939 13.2568 12.0701 13.2279 11.8643C12.2859 12.3938 11.1405 13.059 10.2685 13.6588C10.8376 13.7074 11.0238 13.9578 10.1805 14.0171C8.5347 14.0949 6.9971 14.3292 6.16054 15.1657C5.55334 15.7727 4.76763 17.1089 4.68901 18.1446C4.61712 19.0938 4.76651 20.2419 4.94031 20.9802C5.00751 21.266 5.11502 21.5652 5.1195 21.8416C5.12801 22.3343 4.89843 22.8815 4.79652 23.4206C4.58665 24.5306 4.55283 25.7309 4.65295 26.974C4.70268 27.5915 4.87491 28.209 4.79652 28.7685C4.72418 29.2837 4.39336 29.7594 4.22224 30.2761C3.79669 31.5635 3.95011 33.014 4.22224 34.3677C4.59539 36.2232 4.92284 38.0347 5.08366 40.0025C5.11748 40.4149 5.17146 40.8716 5.15556 41.2588C5.13316 41.7825 4.95689 42.368 4.86819 42.9098C4.8234 43.1785 4.76449 43.4585 4.72485 43.7353C4.6814 44.0362 4.61712 44.3779 4.65295 44.6326C4.72015 45.113 5.22499 45.3155 5.40664 45.7812C5.74529 45.8452 5.85929 46.3541 6.12448 46.4273C6.46045 46.5203 7.49074 46.1518 7.63185 45.9966C7.79513 45.8174 7.76624 45.4815 7.88315 45.2799C8.06793 44.9578 8.39404 44.928 8.45743 44.6698C8.52283 44.4028 8.39516 43.7763 8.24196 43.4135C7.95684 42.7375 7.50575 42.193 7.30887 41.4752C7.21189 41.1213 7.18367 40.6785 7.12969 40.2191C7.07885 39.7889 6.97627 39.3443 6.95051 38.927C6.89093 37.967 7.05847 37.3112 7.30887 36.6299C7.47932 36.1674 7.63678 35.7188 7.77564 35.2661C8.05226 34.3635 8.38844 33.3668 8.38553 32.2511C8.38318 31.7691 8.33511 31.2884 8.24196 30.8154C8.15842 30.3957 7.97028 30.0091 7.8836 29.5952C7.63723 28.4207 8.14901 27.658 8.35015 26.7597C8.64692 25.4364 8.72553 23.876 8.70851 22.3092C8.70649 22.1195 8.62698 21.842 8.73919 21.6626C8.18283 20.6626 7.68202 18.7982 7.84037 18.5016C8.05181 17.7401 8.32551 17.412 8.69149 17.0747L8.27354 18.1126C8.15892 18.4565 8.13896 18.8249 8.21576 19.1792C8.49752 20.7405 9.14482 21.7446 10.2338 22.0761C11.0551 22.2105 11.9103 22.1101 12.7703 21.9753C12.0312 22.3451 11.0444 22.494 9.61383 22.249C9.296 22.1639 9.18603 22.0987 9.05075 21.9896C9.04783 22.1101 9.03216 22.236 9.03216 22.3451C9.03216 22.6761 9.00393 23.0618 9.03216 23.3142C9.08322 23.7709 9.26532 24.2661 9.39052 24.7139C9.72313 25.8978 10.1341 26.9798 10.611 27.9443C10.7053 28.1349 10.8715 28.3291 10.8262 28.5544C10.6746 28.715 10.5841 28.2016 10.5032 28.4108C10.2705 29.9059 10.3836 31.5257 10.7545 32.7177C10.8188 32.9246 10.9949 33.1533 10.8981 33.3639C10.6623 33.3179 10.6293 33.0521 10.5397 32.8613C10.4502 32.6704 10.3431 32.4632 10.2526 32.287C10.0403 32.8527 9.98003 33.4382 9.92963 34.0456C9.87543 34.7008 9.892 35.4047 9.78629 36.0198C9.72671 36.3652 9.60957 36.722 9.53476 37.0606C9.29712 38.1375 9.10428 39.2822 9.06822 40.577C9.02118 42.2717 8.83461 44.0055 9.03238 45.6736C9.30115 47.9466 9.8611 50.1514 10.5039 52.0984C10.7221 52.7587 11.1508 53.3547 11.2576 54.0007C11.3273 54.4209 11.2309 54.7859 11.2576 55.1851C11.2858 55.605 11.3647 56.0292 11.4368 56.4053C11.5116 56.7934 11.6816 57.1525 11.6522 57.518C11.4834 57.7133 11.3326 57.2963 11.2939 57.4822C10.4528 60.2447 10.2676 63.3728 11.0786 66.3114C11.7215 68.6407 12.4559 70.8044 12.8731 73.346C12.937 73.7337 13.0299 74.1427 13.0167 74.4948C12.9995 74.9963 12.8254 75.3029 12.6221 75.6432C12.3011 76.1807 11.9174 76.6479 11.5096 77.0072C11.4484 77.0607 11.2386 77.2226 11.366 77.2224C11.5833 77.2025 11.8413 77.2493 12.0827 77.2583C12.319 77.2672 12.6021 77.194 12.7647 77.3301C12.4991 77.4645 12.1282 77.441 11.7598 77.4737C10.9254 77.5474 10.0266 77.4984 9.82145 78.1197C10.1375 78.2489 10.4876 78.1916 10.8264 78.1916C11.1774 78.1916 11.5488 78.1864 11.9033 78.1916C12.5976 78.2014 13.3036 78.2865 13.9491 78.1916C14.1164 78.1669 14.2562 78.0693 14.4157 78.048C14.8329 77.9927 15.2135 78.117 15.6001 78.0122C15.6713 77.2784 15.1969 76.753 15.2052 76.0739C15.2083 75.7979 15.3644 75.5204 15.3488 75.2124C15.332 74.8776 15.1626 74.5766 15.0977 74.2435C15.0274 73.8827 15.0235 73.4883 14.99 73.1308C14.766 70.7477 14.8191 68.4559 15.2413 66.1678C15.3756 65.4417 15.5864 64.8015 15.7078 64.1578C15.9911 62.6572 15.8646 61.0233 15.4565 59.7432C15.256 59.1161 14.9821 58.4103 14.99 57.7333C14.9951 57.2833 15.1774 56.8577 15.2052 56.4411C15.2435 55.872 15.2598 55.2617 15.2052 54.6825C15.1712 54.3187 14.9494 53.9523 14.9181 53.57C14.8699 52.9796 15.0999 52.5876 15.1696 52.0624C15.586 48.9193 15.6175 45.486 15.6717 42.0127C15.8986 41.9491 16.3623 41.9388 16.4973 42.0846C16.4684 45.5115 16.6183 49.0313 17.036 51.9907C17.0958 52.4163 17.2528 52.8364 17.2871 53.2468C17.3343 53.8114 17.1092 54.0307 17.036 54.4314C16.887 55.244 16.9641 56.307 17.1074 57.0154C17.1619 57.2842 17.2514 57.5379 17.251 57.8052C17.251 58.4818 16.9822 59.1383 16.7845 59.7791C16.3605 61.1476 16.3493 62.6809 16.6053 64.122C16.7173 64.7601 16.9307 65.4038 17.0718 66.132C17.3697 67.6682 17.451 69.1599 17.4667 70.6543C17.4795 71.8588 17.4501 73.0889 17.2875 74.1358C17.2353 74.4718 17.0667 74.7918 17.0364 75.1408C17.0055 75.4942 17.1802 75.7713 17.1798 76.1099C17.1798 76.3988 17.0382 76.746 16.9645 77.043C16.8873 77.3537 16.775 77.6549 16.7854 78.0122C17.1569 78.1781 17.5675 77.9754 18.0416 78.048C18.1866 78.0704 18.3209 78.1696 18.4724 78.1916C19.0979 78.2827 19.861 78.1916 20.5553 78.1916C21.0884 78.1916 21.6363 78.1786 22.0625 78.1557C22.2056 78.1479 22.4208 78.2229 22.5293 78.0838C22.6153 77.8621 22.3501 77.7615 22.2063 77.689C21.705 77.4386 20.655 77.4775 20.0527 77.4018C19.9094 77.3839 19.6928 77.4493 19.622 77.2943C20.0252 77.1944 20.5607 77.2271 21.0575 77.2224C20.7887 76.9001 20.4167 76.591 20.1244 76.1816C19.7248 75.6217 19.3058 75.0552 19.3707 74.1358C19.4686 72.7527 19.8552 71.3674 20.1963 70.0083C20.5204 68.7169 20.9271 67.4299 21.273 66.0961C22.0002 63.291 21.8069 60.2965 20.95 57.4103C20.8411 57.2983 20.9153 57.5276 20.8064 57.518C20.726 57.5989 20.6272 57.5156 20.5553 57.4822C20.6595 56.799 20.8913 56.1312 20.95 55.3286C20.9793 54.9199 20.9 54.4822 20.95 54.0365C21.0205 53.4056 21.447 52.7567 21.6667 52.0984C22.3274 50.1299 22.8652 47.8821 23.1024 45.5661C23.2773 43.857 23.0905 42.1538 23.0307 40.4695C22.9846 39.1817 22.7982 38.015 22.564 36.952C22.4829 36.584 22.333 36.2406 22.2771 35.8753C22.0961 34.6999 22.2323 33.3905 21.8103 32.2861C21.6799 32.3105 21.7133 32.4715 21.6667 32.5732C21.623 32.6684 21.5377 32.7569 21.4875 32.8604C21.4013 33.0373 21.3612 33.3807 21.1292 33.3271C21.1424 32.9862 21.3178 32.6328 21.4163 32.2502C21.7171 31.0835 21.7075 29.6185 21.488 28.338C21.3932 28.2565 21.352 28.6868 21.165 28.5172C21.2707 28.1062 21.4833 27.7138 21.6676 27.2968C22.026 26.4855 22.3115 25.6631 22.5649 24.7486C22.6923 24.2887 22.876 23.8159 22.9232 23.3487C22.949 23.0992 22.9232 22.6963 22.9232 22.3437C22.9232 22.2201 22.904 22.068 22.9049 21.9278C22.7277 22.0754 22.641 22.1477 22.2683 22.2476C20.8378 22.4927 19.8494 22.3437 19.1118 21.9739C19.9719 22.1083 20.8272 22.21 21.6486 22.0747C22.7373 21.7432 23.3846 20.7392 23.6664 19.1778C23.7433 18.8236 23.7234 18.4552 23.6088 18.1112C23.4695 17.7653 23.3301 17.4193 23.1907 17.0733C23.556 17.4106 23.8299 17.7397 24.0418 18.5003C24.1956 18.7881 23.7282 20.5524 23.1922 21.5703C23.3698 21.7804 23.2818 22.1094 23.2818 22.3437C23.2818 24.0435 23.3734 25.5737 23.7125 26.8661C23.8514 27.3944 24.0984 27.886 24.1791 28.3734C24.3175 29.2102 24.0062 29.9433 23.8561 30.563C23.7621 30.9397 23.7021 31.324 23.6769 31.7114C23.5835 33.3204 24.1596 34.8325 24.5742 36.0543C24.8864 36.9744 25.2215 37.7139 25.1484 38.8898C25.0916 39.805 24.9404 41.1365 24.6109 41.9406C24.2998 42.6981 23.491 43.8066 23.6778 44.5965C23.7584 44.937 24.1356 44.9621 24.2879 45.2425C24.3999 45.4479 24.371 45.789 24.539 45.9603C24.8785 46.3059 25.5751 46.2533 26.0466 46.391C26.181 46.2777 26.2733 46.1339 26.405 45.9964C26.5319 45.8643 26.6867 45.7756 26.7998 45.638C26.8516 45.5749 26.8581 45.4544 26.9076 45.3867C27.0726 45.1628 27.3746 44.9836 27.4451 44.7408C27.5896 44.2496 27.3643 43.5089 27.2659 42.9102C27.1745 42.3534 27.0169 41.7957 26.9788 41.2951C26.9192 40.5096 27.0359 39.5978 27.1224 38.7469C27.203 37.9543 27.3204 37.1428 27.4453 36.3781C27.7083 34.7733 28.2118 33.2548 28.0915 31.6045C28.0512 31.0499 27.8935 30.5187 27.6966 29.9894C27.5112 29.4904 27.2202 28.9549 27.1943 28.4818C27.1656 27.9609 27.3396 27.3747 27.3734 26.7951C27.4453 25.571 27.4115 24.3662 27.1943 23.3136C27.0854 22.7861 26.8298 22.2358 26.8359 21.7701C26.8388 21.5166 26.9512 21.248 27.0151 20.9806C27.2012 20.2021 27.3224 19.1915 27.2664 18.2886C27.2234 17.5943 26.9678 16.9748 26.6563 16.4222C26.3447 15.8697 26.0387 15.3695 25.6154 14.9865C24.6776 14.1383 23.1983 14.1354 21.6674 13.9457C20.9233 13.887 21.0243 13.6303 21.5238 13.6227C20.5096 12.9857 19.6218 12.2229 18.5449 11.6486C18.5051 11.8609 18.4208 12.1073 18.3657 12.3667C18.3187 12.5868 18.3657 12.9553 18.1144 13.0126C18.2009 12.0578 18.2869 11.1034 18.3657 10.1412C17.8036 10.5919 17.3339 11.4148 16.6071 11.7205C16.1298 11.9221 15.663 11.9588 15.0963 11.7205C14.3509 11.4069 13.9635 10.6826 13.3735 10.1412C13.3511 10.1432 13.331 10.1466 13.3374 10.1771C13.3952 11.1126 13.5574 12.1348 13.5529 13.0126L13.5509 13.0128ZM15.4099 30.2459C15.6926 29.5657 16.302 29.6302 16.5336 30.2542C15.8444 29.6382 15.4758 30.5176 15.4099 30.2459ZM14.4 14.3403C14.585 14.3791 14.7243 14.4322 14.9151 14.4322C15.2101 14.4322 15.4773 14.5666 15.5591 14.8465C15.5837 14.9317 15.8903 15.656 15.5033 15.223C15.3541 15.0564 15.3725 14.7457 15.0578 14.6915C14.8876 14.6622 14.2419 14.3236 14.4007 14.3403H14.4ZM17.4951 14.3403C17.3101 14.3791 17.171 14.4322 16.98 14.4322C16.685 14.4322 16.4178 14.5666 16.3361 14.8465C16.3114 14.9317 16.0048 15.656 16.392 15.223C16.541 15.0564 16.5226 14.7457 16.8373 14.6915C17.0078 14.6622 17.6533 14.3236 17.4945 14.3403H17.4951ZM13.2273 52.7283C13.6221 53.3747 14.5263 53.7117 14.5819 53.4002C14.6175 53.4629 14.7774 53.7559 14.3001 53.7854C14.0846 53.7854 13.675 53.5391 13.5213 53.3854C13.3108 53.1749 13.2624 52.9478 13.2273 52.7285V52.7283ZM12.7829 53.0853C12.4957 53.3807 12.3271 53.557 11.852 53.6031C11.9474 53.7028 12.0583 53.8258 12.4612 53.7411C12.7609 53.5619 12.7912 53.327 12.7829 53.0853ZM12.0872 54.8728C12.166 55.668 12.2574 56.6626 12.6877 57.0396C12.8411 57.2011 13.1511 57.2683 13.5301 57.3648C13.1802 57.5086 12.6913 57.4284 12.3188 57.1903C11.9871 56.9771 11.7967 55.0899 12.0872 54.8728ZM14.6119 54.4325C14.6067 54.8531 14.6152 56.3811 14.4347 56.7569C14.3471 56.9393 14.0958 57.1057 13.8945 57.1684C14.2443 57.3122 14.1982 57.3274 14.5704 57.0891C14.9024 56.8761 14.9024 54.6493 14.6119 54.4325ZM19.0444 52.7283C18.6493 53.3747 17.7453 53.7117 17.6895 53.4002C17.6539 53.4629 17.494 53.7559 17.9715 53.7854C18.1868 53.7854 18.5964 53.5391 18.7501 53.3854C18.9608 53.1749 19.009 52.9478 19.0444 52.7285V52.7283ZM19.4894 53.0853C19.7768 53.3807 19.9452 53.557 20.4203 53.6031C20.3251 53.7028 20.2142 53.8258 19.8113 53.7411C19.5116 53.5619 19.4814 53.327 19.4894 53.0853ZM20.1851 54.8728C20.1065 55.668 20.0151 56.6626 19.5848 57.0396C19.4314 57.2011 19.1214 57.2683 18.7425 57.3648C19.0923 57.5086 19.5813 57.4284 19.9535 57.1903C20.2854 56.9771 20.4756 55.0899 20.1851 54.8728ZM17.6607 54.4325C17.6656 54.8531 17.6571 56.3811 17.8378 56.7569C17.9252 56.9393 18.1767 57.1057 18.3781 57.1684C18.0282 57.3122 18.0743 57.3274 17.7021 57.0891C17.3702 56.8761 17.3702 54.6493 17.6607 54.4325ZM19.0094 5.36782C19.0491 4.9557 19.099 4.58211 19.1172 4.18343C19.1635 3.13589 18.8157 2.4812 18.3277 1.95821C17.8125 1.40768 16.8494 0.868566 15.9589 0.80966C14.9494 0.742466 14.0309 1.25201 13.3713 1.95821C12.9905 2.36541 12.6348 2.94371 12.5815 3.64521C12.5322 4.29475 12.646 4.87709 12.6895 5.40388C12.702 5.55865 12.8355 5.82675 12.6176 5.94143C12.3795 5.94008 12.5768 5.50355 12.2944 5.54678C12.0189 5.55865 11.977 5.9972 12.0072 6.37213C12.057 6.98337 12.3945 7.759 12.724 7.9514C12.7103 7.7823 12.7269 7.64321 12.9032 7.66426C13.152 8.20763 13.094 8.82289 13.298 9.35126C13.488 9.84244 13.8757 10.2402 14.2313 10.6073C14.6694 11.0598 15.138 11.5012 15.8464 11.5406C16.7002 11.5881 17.0243 11.0624 17.4649 10.6073C18.0622 9.99049 18.4056 9.48564 18.5774 8.48984C18.6311 8.1821 18.6352 7.81141 18.8289 7.66426C18.9747 7.6618 18.9835 7.79708 18.9723 7.9514C19.3156 7.75363 19.8512 6.60014 19.689 5.86975C19.6534 5.70759 19.5098 5.4984 19.366 5.54678C19.136 5.62405 19.3356 5.88162 19.043 5.94143C18.8919 5.77703 18.9904 5.5414 19.007 5.36715L19.0094 5.36782Z" fill="#161616"/>
<path fill-rule="evenodd" clip-rule="evenodd" d="M11.3893 14.65C9.54796 15.4626 7.8435 17.1324 6.68576 20.0152C6.46424 20.1296 6.13298 19.9587 6.35763 18.5096C6.68195 17.3021 6.53524 16.6058 7.77966 14.8691C8.8001 13.7866 11.6379 14.2366 11.3895 14.65H11.3893Z" fill="url(#paint1_linear_5273_247338)"/>
<path fill-rule="evenodd" clip-rule="evenodd" d="M7.76416 14.6755C6.39789 16.0193 5.74948 18.7366 6.12711 20.5746C5.84736 21.5966 5.5255 22.2338 5.30869 21.6248C4.46855 18.3236 5.14877 16.3143 6.7146 15.0298C6.90924 14.8851 7.66001 14.5341 7.76416 14.6755Z" fill="url(#paint2_linear_5273_247338)"/>
<path fill-rule="evenodd" clip-rule="evenodd" d="M7.82464 20.0736C7.65912 19.2386 7.44388 18.7275 6.88595 20.4843C5.82699 22.9219 5.99005 25.3124 5.94727 27.6713C6.05321 29.3982 6.80667 29.172 7.44321 28.2873C8.1848 27.0059 8.8957 23.0375 7.82397 20.0736H7.82464Z" fill="url(#paint3_linear_5273_247338)"/>
<path fill-rule="evenodd" clip-rule="evenodd" d="M5.72044 22.0548C6.18243 21.4582 6.27949 21.5678 6.01161 22.3833C5.73478 24.0952 5.56007 25.7923 5.77464 27.8956C5.77464 28.5727 5.23351 28.7866 5.06329 28.2423C4.69888 25.691 4.62228 23.3861 5.71977 22.0548H5.72044Z" fill="url(#paint4_linear_5273_247338)"/>
<path fill-rule="evenodd" clip-rule="evenodd" d="M4.83678 29.7438C5.31654 28.2942 6.89133 28.9409 6.77643 30.9013C7.12964 33.8827 6.49892 36.533 6.77643 39.6611C6.68258 40.6101 6.48526 40.6831 6.30608 39.8801C5.91815 35.9637 4.11961 31.9043 4.83566 29.7438H4.83678Z" fill="url(#paint5_linear_5273_247338)"/>
<path fill-rule="evenodd" clip-rule="evenodd" d="M4.23168 32.3438C4.42878 30.9683 4.52016 32.2152 4.65141 32.9651C5.05905 35.5 5.97288 37.947 6.14803 40.4372C6.13593 40.9884 5.60667 41.1163 5.39972 40.9122C5.41674 38.42 4.09438 33.254 4.23168 32.3438Z" fill="url(#paint6_linear_5273_247338)"/>
<path fill-rule="evenodd" clip-rule="evenodd" d="M7.55364 29.4049C7.14108 29.0342 6.95219 29.2231 6.98698 29.9716C7.16325 31.928 7.33504 33.884 6.9451 35.784C6.91717 36.5956 7.02916 36.7075 7.28106 36.12C8.10037 33.9272 8.5275 31.7101 7.55387 29.4051L7.55364 29.4049Z" fill="url(#paint7_linear_5273_247338)"/>
<path fill-rule="evenodd" clip-rule="evenodd" d="M20.5458 14.65C22.3871 15.4626 24.0916 17.1324 25.2494 20.0152C25.4709 20.1296 25.8021 19.9587 25.5775 18.5096C25.2532 17.3021 25.3999 16.6058 24.1554 14.8691C23.135 13.7866 20.2972 14.2366 20.5456 14.65H20.5458Z" fill="url(#paint8_linear_5273_247338)"/>
<path fill-rule="evenodd" clip-rule="evenodd" d="M24.1714 14.6755C25.5376 16.0193 26.1872 18.7366 25.8084 20.5746C26.0882 21.5966 26.41 22.2338 26.6268 21.6248C27.467 18.3236 26.7868 16.3143 25.2209 15.0298C25.0263 14.8851 24.2758 14.5341 24.1714 14.6755Z" fill="url(#paint9_linear_5273_247338)"/>
<path fill-rule="evenodd" clip-rule="evenodd" d="M24.2376 20.0736C24.4031 19.2386 24.6183 18.7275 25.1763 20.4843C26.2352 22.9219 26.0722 25.3124 26.1149 27.6713C26.009 29.3982 25.2553 29.172 24.6188 28.2873C23.8774 27.0059 23.1665 23.0375 24.238 20.0736H24.2376Z" fill="url(#paint10_linear_5273_247338)"/>
<path fill-rule="evenodd" clip-rule="evenodd" d="M26.3414 22.0548C25.8795 21.4582 25.7825 21.5678 26.0502 22.3833C26.327 24.0952 26.5015 25.7923 26.2872 27.8956C26.2872 28.5727 26.8283 28.7866 26.9983 28.2423C27.3627 25.691 27.4395 23.3861 26.3418 22.0548H26.3414Z" fill="url(#paint11_linear_5273_247338)"/>
<path fill-rule="evenodd" clip-rule="evenodd" d="M27.2256 29.7438C26.7459 28.2942 25.1711 28.9409 25.2858 30.9013C24.9328 33.8827 25.5635 36.533 25.2858 39.6611C25.3798 40.6101 25.5769 40.6831 25.7561 39.8801C26.144 35.9637 27.9426 31.9043 27.2265 29.7438H27.2256Z" fill="url(#paint12_linear_5273_247338)"/>
<path fill-rule="evenodd" clip-rule="evenodd" d="M27.8306 32.3438C27.6335 30.9683 27.5422 32.2152 27.4109 32.9651C27.003 35.5 26.0894 37.947 25.9141 40.4372C25.9264 40.9884 26.4556 41.1163 26.6626 40.9122C26.6456 38.42 27.9677 33.254 27.8306 32.3438Z" fill="url(#paint13_linear_5273_247338)"/>
<path fill-rule="evenodd" clip-rule="evenodd" d="M24.5087 29.4049C24.9212 29.0342 25.1101 29.2231 25.0751 29.9716C24.8991 31.928 24.7273 33.884 25.1172 35.784C25.1453 36.5956 25.0333 36.7075 24.7813 36.12C23.9619 33.9272 23.5348 31.7101 24.5085 29.4051L24.5087 29.4049Z" fill="url(#paint14_linear_5273_247338)"/>
<path fill-rule="evenodd" clip-rule="evenodd" d="M13.1737 13.1107C13.4649 13.9842 13.6311 13.8531 12.6243 13.7826C10.5434 13.6379 10.615 13.6863 12.3464 12.7436C13.1677 12.2956 12.9099 12.3211 13.1737 13.11V13.1107Z" fill="url(#paint15_linear_5273_247338)"/>
<path fill-rule="evenodd" clip-rule="evenodd" d="M13.6787 11.0577C13.7193 11.8776 14.1191 13.1182 14.483 13.6748C15.015 14.4883 15.6578 14.383 15.5718 14.005C14.9319 13.1014 14.8618 12.0575 14.6514 11.7428C14.1414 11.4169 13.7448 10.6117 13.6787 11.0588V11.0577Z" fill="url(#paint16_linear_5273_247338)"/>
<mask id="path-22-inside-1_5273_247338" fill="white">
<path fill-rule="evenodd" clip-rule="evenodd" d="M12.1724 14.6907C12.9115 14.4544 15.7883 15.62 15.3179 15.7682C13.3409 16.4046 11.4207 16.835 9.21836 18.2947C8.45572 18.6979 8.39457 18.514 8.66626 17.7684C9.21545 16.0482 10.5701 15.2867 12.1724 14.6907Z"/>
</mask>
<path fill-rule="evenodd" clip-rule="evenodd" d="M12.1724 14.6907C12.9115 14.4544 15.7883 15.62 15.3179 15.7682C13.3409 16.4046 11.4207 16.835 9.21836 18.2947C8.45572 18.6979 8.39457 18.514 8.66626 17.7684C9.21545 16.0482 10.5701 15.2867 12.1724 14.6907Z" fill="#00D68F"/>
<path d="M12.1724 14.6907L10.9543 10.8807L10.8654 10.9091L10.7779 10.9416L12.1724 14.6907ZM15.3179 15.7682L14.1153 11.9533L14.1039 11.9569L14.0924 11.9606L15.3179 15.7682ZM9.21836 18.2947L11.0878 21.831L11.263 21.7384L11.4282 21.6289L9.21836 18.2947ZM8.66626 17.7684L12.4245 19.1378L12.4522 19.0619L12.4768 18.9849L8.66626 17.7684ZM13.3905 18.5007C12.7784 18.6964 12.3182 18.6571 12.2824 18.6548C12.1726 18.6478 12.1392 18.6359 12.2051 18.65C12.3329 18.6774 12.5554 18.7416 12.8025 18.8337C13.0784 18.9364 13.1733 18.9945 13.1019 18.9525C13.0731 18.9356 12.9836 18.8821 12.8632 18.7916C12.7808 18.7297 12.4809 18.5026 12.1781 18.1091C11.9952 17.8715 10.996 16.5367 11.5123 14.6652C12.0616 12.6745 13.7438 12.0704 14.1153 11.9533L16.5205 19.5832C16.9509 19.4475 18.6657 18.817 19.2242 16.793C19.7497 14.8882 18.7361 13.5135 18.5182 13.2302C17.9622 12.5078 17.2615 12.1178 17.1557 12.0557C16.6542 11.7609 16.0718 11.5145 15.5949 11.3368C15.0892 11.1485 14.4834 10.9564 13.8786 10.827C13.5782 10.7628 13.2024 10.6975 12.7957 10.6713C12.463 10.6499 11.7512 10.6259 10.9543 10.8807L13.3905 18.5007ZM14.0924 11.9606C12.4218 12.4983 9.79484 13.1139 7.00857 14.9605L11.4282 21.6289C13.0466 20.5562 14.26 20.3108 16.5434 19.5759L14.0924 11.9606ZM7.34896 14.7584C7.21277 14.8304 7.41071 14.7068 7.78118 14.6121C7.83222 14.599 9.97835 13.9909 11.582 15.8482C12.2927 16.6712 12.4613 17.5462 12.5033 17.9991C12.5456 18.4539 12.4913 18.7956 12.4691 18.921C12.4254 19.1672 12.3695 19.2889 12.4245 19.1378L4.90798 16.3989C4.82721 16.6206 4.67706 17.0449 4.59224 17.5227C4.54942 17.7639 4.48793 18.2037 4.5376 18.7387C4.58709 19.2717 4.77786 20.209 5.52686 21.0765C7.20718 23.0225 9.49461 22.4314 9.76312 22.3627C10.3511 22.2124 10.8426 21.9606 11.0878 21.831L7.34896 14.7584ZM12.4768 18.9849C12.4923 18.9362 12.4977 18.9391 12.481 18.9627C12.4658 18.984 12.4631 18.979 12.5037 18.9469C12.6202 18.8549 12.8964 18.6891 13.5669 18.4397L10.7779 10.9416C8.91451 11.6347 5.9946 12.9848 4.85576 16.5518L12.4768 18.9849Z" fill="url(#paint17_linear_5273_247338)" mask="url(#path-22-inside-1_5273_247338)"/>
<path d="M13.6938 19.1682C13.6938 19.1682 13.6939 19.1671 13.6943 19.1651L13.6938 19.1682Z" fill="#00D68F" stroke="url(#paint18_linear_5273_247338)" stroke-width="4"/>
<path fill-rule="evenodd" clip-rule="evenodd" d="M9.34407 19.0909C8.52342 19.142 8.51782 19.2594 8.57986 19.8708C8.8399 20.8073 9.39625 21.6479 10.2474 21.8194C12.084 22.1906 14.5925 21.3121 14.9151 21.2546C15.3507 21.1117 15.8871 20.6568 15.1966 20.2603C13.5004 19.448 10.3161 18.9671 9.34407 19.0905V19.0909Z" fill="url(#paint19_linear_5273_247338)"/>
<path fill-rule="evenodd" clip-rule="evenodd" d="M12.7755 22.527C12.455 22.7857 12.2086 23.9687 12.6277 23.9687C12.9876 23.9436 13.2167 23.6968 13.8611 23.6249C14.3953 23.5653 14.9736 23.6151 15.3076 23.562C15.8805 23.2786 15.8252 21.72 15.2892 21.6768C14.3525 21.7238 13.4049 21.815 12.7755 22.5279V22.527Z" fill="url(#paint20_linear_5273_247338)"/>
<path fill-rule="evenodd" clip-rule="evenodd" d="M12.6192 24.3219C13.2033 23.9279 14.6574 23.7355 15.399 23.9456C15.747 24.1109 15.739 25.6592 15.5204 26.2273C15.276 26.6528 13.8325 26.3941 12.7975 26.6723C12.0716 26.9516 12.0055 24.7674 12.6183 24.3219H12.6192Z" fill="url(#paint21_linear_5273_247338)"/>
<path fill-rule="evenodd" clip-rule="evenodd" d="M12.6577 27.143C13.1536 26.8442 14.4719 26.7535 15.1109 26.8229C15.87 26.8791 15.6932 29.1034 15.3828 29.2887C15.0309 29.5874 15.1109 29.8385 14.7588 30.2014C14.4815 30.3882 13.7565 30.4477 13.3352 30.6336C12.4339 30.8899 12.1672 27.3513 12.6577 27.143Z" fill="url(#paint22_linear_5273_247338)"/>
<path fill-rule="evenodd" clip-rule="evenodd" d="M13.2006 31.2699C13.8474 30.8987 14.4943 30.6427 15.1411 30.7155C15.5615 30.8275 15.6287 31.0604 15.6218 31.2885C15.6782 33.113 15.6724 34.8754 15.6773 36.6485C15.6401 37.2953 14.9563 37.8313 14.4943 36.8888C13.5209 35.2869 12.5105 31.5778 13.2006 31.2699Z" fill="url(#paint23_linear_5273_247338)"/>
<path fill-rule="evenodd" clip-rule="evenodd" d="M18.5292 13.1107C18.2381 13.9842 18.0719 13.8531 19.0787 13.7826C21.1596 13.6379 21.088 13.6863 19.3566 12.7436C18.5353 12.2956 18.7931 12.3211 18.5292 13.11V13.1107Z" fill="url(#paint24_linear_5273_247338)"/>
<path fill-rule="evenodd" clip-rule="evenodd" d="M18.1089 11.0577C18.0684 11.8776 17.6686 13.1182 17.3046 13.6748C16.7726 14.4883 16.1296 14.383 16.2158 14.005C16.8555 13.1014 16.9256 12.0575 17.1359 11.7428C17.6462 11.4169 18.0426 10.6117 18.1089 11.0588V11.0577Z" fill="url(#paint25_linear_5273_247338)"/>
<mask id="path-32-inside-2_5273_247338" fill="white">
<path fill-rule="evenodd" clip-rule="evenodd" d="M19.7001 14.6907C18.961 14.4544 16.0842 15.62 16.5546 15.7682C18.5316 16.4046 20.4518 16.835 22.6542 18.2947C23.4157 18.6979 23.4782 18.514 23.2065 17.7684C22.6573 16.0482 21.3027 15.2867 19.7001 14.6907Z"/>
</mask>
<path fill-rule="evenodd" clip-rule="evenodd" d="M19.7001 14.6907C18.961 14.4544 16.0842 15.62 16.5546 15.7682C18.5316 16.4046 20.4518 16.835 22.6542 18.2947C23.4157 18.6979 23.4782 18.514 23.2065 17.7684C22.6573 16.0482 21.3027 15.2867 19.7001 14.6907Z" fill="#00D68F"/>
<path d="M19.7001 14.6907L21.0945 10.9416L21.007 10.9091L20.9182 10.8807L19.7001 14.6907ZM16.5546 15.7682L17.7801 11.9606L17.7687 11.9569L17.7572 11.9533L16.5546 15.7682ZM22.6542 18.2947L20.4444 21.6289L20.6085 21.7377L20.7826 21.8299L22.6542 18.2947ZM23.2065 17.7684L19.396 18.9849L19.4206 19.0619L19.4482 19.1378L23.2065 17.7684ZM20.9182 10.8807C20.1214 10.6259 19.4095 10.6499 19.0768 10.6713C18.6701 10.6975 18.2943 10.7628 17.9939 10.827C17.3892 10.9564 16.7833 11.1485 16.2776 11.3368C15.8007 11.5145 15.2184 11.7609 14.7168 12.0557C14.6111 12.1178 13.9103 12.5078 13.3544 13.2302C13.1364 13.5135 12.1228 14.8883 12.6484 16.793C13.2068 18.817 14.9216 19.4475 15.352 19.5832L17.7572 11.9533C18.1287 12.0704 19.811 12.6745 20.3602 14.6652C20.8766 16.5367 19.8773 17.8715 19.6944 18.1091C19.3916 18.5026 19.0917 18.7297 19.0094 18.7916C18.8889 18.8821 18.7994 18.9356 18.7706 18.9525C18.6993 18.9945 18.7941 18.9364 19.07 18.8337C19.3171 18.7416 19.5396 18.6774 19.6675 18.65C19.7333 18.6359 19.6999 18.6478 19.5901 18.6548C19.5543 18.6571 19.0941 18.6964 18.4821 18.5007L20.9182 10.8807ZM15.3291 19.5759C17.6126 20.3108 18.8259 20.5562 20.4444 21.6289L24.864 14.9605C22.0777 13.1139 19.4507 12.4983 17.7801 11.9606L15.3291 19.5759ZM20.7826 21.8299C21.0281 21.9598 21.52 22.212 22.1087 22.3626C22.3804 22.4321 24.6624 23.0206 26.342 21.0803C27.0913 20.2148 27.2839 19.2787 27.3342 18.7445C27.3848 18.2088 27.3237 17.7683 27.2809 17.5262C27.1963 17.047 27.0459 16.6216 26.9648 16.3989L19.4482 19.1378C19.5029 19.2879 19.4466 19.1651 19.4028 18.9175C19.3805 18.7912 19.3266 18.4487 19.3696 17.9932C19.4124 17.5392 19.5827 16.6655 20.2935 15.8443C21.8963 13.9928 24.0369 14.5983 24.0912 14.6122C24.4625 14.7071 24.661 14.8312 24.5257 14.7596L20.7826 21.8299ZM27.017 16.5518C25.8781 12.9847 22.9581 11.6347 21.0945 10.9416L18.3058 18.4398C18.9763 18.6892 19.2526 18.855 19.3691 18.947C19.4096 18.979 19.4069 18.9841 19.3918 18.9628C19.375 18.9391 19.3804 18.9362 19.396 18.9849L27.017 16.5518Z" fill="url(#paint26_linear_5273_247338)" mask="url(#path-32-inside-2_5273_247338)"/>
<path d="M18.1784 19.1682C18.1784 19.1682 18.1783 19.1672 18.1779 19.1651C18.1783 19.1671 18.1785 19.1682 18.1784 19.1682Z" fill="#00D68F" stroke="url(#paint27_linear_5273_247338)" stroke-width="4"/>
<path fill-rule="evenodd" clip-rule="evenodd" d="M22.5288 19.0909C23.3497 19.142 23.3551 19.2594 23.2931 19.8708C23.033 20.8073 22.4767 21.6479 21.6255 21.8194C19.7889 22.1906 17.2804 21.3121 16.9579 21.2546C16.5222 21.1117 15.9858 20.6568 16.6763 20.2603C18.3725 19.448 21.5568 18.9671 22.5288 19.0905V19.0909Z" fill="url(#paint28_linear_5273_247338)"/>
<path fill-rule="evenodd" clip-rule="evenodd" d="M19.0974 22.527C19.4179 22.7857 19.6643 23.9687 19.2452 23.9687C18.8853 23.9436 18.6561 23.6968 18.0118 23.6249C17.4776 23.5653 16.8993 23.6151 16.5653 23.562C15.9924 23.2786 16.0477 21.72 16.5837 21.6768C17.5204 21.7238 18.468 21.815 19.0974 22.5279V22.527Z" fill="url(#paint29_linear_5273_247338)"/>
<path fill-rule="evenodd" clip-rule="evenodd" d="M19.2533 24.3219C18.6692 23.9279 17.2151 23.7355 16.4735 23.9456C16.1257 24.1109 16.1335 25.6592 16.3521 26.2273C16.5965 26.6528 18.04 26.3941 19.075 26.6723C19.8009 26.9516 19.867 24.7674 19.2542 24.3219H19.2533Z" fill="url(#paint30_linear_5273_247338)"/>
<path fill-rule="evenodd" clip-rule="evenodd" d="M19.2152 27.143C18.7193 26.8442 17.4009 26.7535 16.7619 26.8229C16.0029 26.8791 16.1796 29.1034 16.49 29.2887C16.8419 29.5874 16.7619 29.8385 17.114 30.2014C17.3913 30.3882 18.1163 30.4477 18.5376 30.6336C19.4389 30.8899 19.7057 27.3513 19.2152 27.143Z" fill="url(#paint31_linear_5273_247338)"/>
<path fill-rule="evenodd" clip-rule="evenodd" d="M18.6718 31.2699C18.025 30.8987 17.3781 30.6427 16.7313 30.7155C16.3109 30.8275 16.2437 31.0604 16.2506 31.2885C16.1942 33.113 16.2 34.8754 16.1953 36.6485C16.2323 37.2953 16.9161 37.8313 17.3781 36.8888C18.3515 35.2869 19.3619 31.5778 18.6718 31.2699Z" fill="url(#paint32_linear_5273_247338)"/>
<path fill-rule="evenodd" clip-rule="evenodd" d="M9.47421 22.3819C9.11966 22.3118 9.14967 22.7313 9.38955 22.8708C10.0774 23.5698 11.1731 24.5486 11.8961 24.7231C12.1039 24.7847 11.9185 24.0722 11.9899 23.515C12.0668 22.9216 12.3183 22.3987 12.0771 22.4582C11.3494 22.6697 10.3186 22.6016 9.47421 22.3819Z" fill="url(#paint33_linear_5273_247338)"/>
<path fill-rule="evenodd" clip-rule="evenodd" d="M9.42006 23.2465C10.1569 23.9632 11.0202 24.7586 11.8204 25.0484C12.0861 25.08 11.8981 26.2971 11.9842 27.2552C12.0702 28.2134 12.3678 29.6083 12.1203 29.4267C11.2916 28.9922 10.2544 27.2799 9.46755 24.2739C9.17637 23.3285 9.214 23.1925 9.42006 23.2465Z" fill="url(#paint34_linear_5273_247338)"/>
<path fill-rule="evenodd" clip-rule="evenodd" d="M11.215 29.0735C10.7084 28.6031 10.6311 28.7778 10.6029 29.6011C10.5395 31.2899 11.004 32.3455 11.9962 33.3378C12.6576 34.1611 12.9533 34.119 12.713 33.0844C12.4666 31.834 12.713 30.8243 11.2139 29.0735H11.215Z" fill="url(#paint35_linear_5273_247338)"/>
<path fill-rule="evenodd" clip-rule="evenodd" d="M22.4222 22.3819C22.7769 22.3118 22.7469 22.7313 22.507 22.8708C21.8192 23.5698 20.7233 24.5486 20.0005 24.7231C19.7924 24.7847 19.9781 24.0722 19.9067 23.515C19.8298 22.9216 19.5781 22.3987 19.8195 22.4582C20.5472 22.6697 21.578 22.6016 22.4222 22.3819Z" fill="url(#paint36_linear_5273_247338)"/>
<path fill-rule="evenodd" clip-rule="evenodd" d="M22.4763 23.2465C21.7392 23.9632 20.876 24.7586 20.076 25.0484C19.8101 25.08 19.9983 26.2971 19.9122 27.2552C19.8262 28.2134 19.5286 29.6083 19.7758 29.4267C20.6046 28.9922 21.642 27.2799 22.4289 24.2739C22.72 23.3285 22.6824 23.1925 22.4763 23.2465Z" fill="url(#paint37_linear_5273_247338)"/>
<path fill-rule="evenodd" clip-rule="evenodd" d="M20.6821 29.0735C21.1888 28.6031 21.2663 28.7778 21.2945 29.6011C21.3579 31.2899 20.8934 32.3455 19.9011 33.3378C19.2397 34.1611 18.9441 34.119 19.1844 33.0844C19.4308 31.834 19.1844 30.8243 20.6833 29.0735H20.6821Z" fill="url(#paint38_linear_5273_247338)"/>
</g>
</g>
<rect x="0.25" y="0.25" width="31.5" height="31.5" rx="7.75" stroke="#3C3C3C" stroke-width="0.5"/>
<defs>
<linearGradient id="paint0_linear_5273_247338" x1="16" y1="0" x2="16" y2="32" gradientUnits="userSpaceOnUse">
<stop stop-color="#010101"/>
<stop offset="1" stop-color="#010101" stop-opacity="0"/>
</linearGradient>
<linearGradient id="paint1_linear_5273_247338" x1="8.84377" y1="14.1953" x2="8.84377" y2="20.0441" gradientUnits="userSpaceOnUse">
<stop stop-color="#4B4B55"/>
<stop offset="1" stop-color="#4B4B55" stop-opacity="0"/>
</linearGradient>
<linearGradient id="paint2_linear_5273_247338" x1="6.35498" y1="14.6426" x2="6.35498" y2="21.8625" gradientUnits="userSpaceOnUse">
<stop stop-color="#4B4B55"/>
<stop offset="1" stop-color="#4B4B55" stop-opacity="0"/>
</linearGradient>
<linearGradient id="paint3_linear_5273_247338" x1="7.15875" y1="19.3066" x2="7.15875" y2="28.9642" gradientUnits="userSpaceOnUse">
<stop stop-color="#4B4B55"/>
<stop offset="1" stop-color="#4B4B55" stop-opacity="0"/>
</linearGradient>
<linearGradient id="paint4_linear_5273_247338" x1="5.48994" y1="21.6768" x2="5.48994" y2="28.5507" gradientUnits="userSpaceOnUse">
<stop stop-color="#4B4B55"/>
<stop offset="1" stop-color="#4B4B55" stop-opacity="0"/>
</linearGradient>
<linearGradient id="paint5_linear_5273_247338" x1="5.77798" y1="28.9561" x2="5.77798" y2="40.4322" gradientUnits="userSpaceOnUse">
<stop stop-color="#4B4B55"/>
<stop offset="1" stop-color="#4B4B55" stop-opacity="0"/>
</linearGradient>
<linearGradient id="paint6_linear_5273_247338" x1="5.18485" y1="31.7266" x2="5.18485" y2="41.0038" gradientUnits="userSpaceOnUse">
<stop stop-color="#4B4B55"/>
<stop offset="1" stop-color="#4B4B55" stop-opacity="0"/>
</linearGradient>
<linearGradient id="paint7_linear_5273_247338" x1="7.52774" y1="29.2207" x2="7.52774" y2="36.4901" gradientUnits="userSpaceOnUse">
<stop stop-color="#4B4B55"/>
<stop offset="1" stop-color="#4B4B55" stop-opacity="0"/>
</linearGradient>
<linearGradient id="paint8_linear_5273_247338" x1="23.0913" y1="14.1953" x2="23.0913" y2="20.0441" gradientUnits="userSpaceOnUse">
<stop stop-color="#4B4B55"/>
<stop offset="1" stop-color="#4B4B55" stop-opacity="0"/>
</linearGradient>
<linearGradient id="paint9_linear_5273_247338" x1="25.5806" y1="14.6426" x2="25.5806" y2="21.8625" gradientUnits="userSpaceOnUse">
<stop stop-color="#4B4B55"/>
<stop offset="1" stop-color="#4B4B55" stop-opacity="0"/>
</linearGradient>
<linearGradient id="paint10_linear_5273_247338" x1="24.9034" y1="19.3066" x2="24.9034" y2="28.9642" gradientUnits="userSpaceOnUse">
<stop stop-color="#4B4B55"/>
<stop offset="1" stop-color="#4B4B55" stop-opacity="0"/>
</linearGradient>
<linearGradient id="paint11_linear_5273_247338" x1="26.5718" y1="21.6768" x2="26.5718" y2="28.5507" gradientUnits="userSpaceOnUse">
<stop stop-color="#4B4B55"/>
<stop offset="1" stop-color="#4B4B55" stop-opacity="0"/>
</linearGradient>
<linearGradient id="paint12_linear_5273_247338" x1="26.2843" y1="28.9561" x2="26.2843" y2="40.4322" gradientUnits="userSpaceOnUse">
<stop stop-color="#4B4B55"/>
<stop offset="1" stop-color="#4B4B55" stop-opacity="0"/>
</linearGradient>
<linearGradient id="paint13_linear_5273_247338" x1="26.8773" y1="31.7266" x2="26.8773" y2="41.0038" gradientUnits="userSpaceOnUse">
<stop stop-color="#4B4B55"/>
<stop offset="1" stop-color="#4B4B55" stop-opacity="0"/>
</linearGradient>
<linearGradient id="paint14_linear_5273_247338" x1="24.5346" y1="29.2207" x2="24.5346" y2="36.4901" gradientUnits="userSpaceOnUse">
<stop stop-color="#4B4B55"/>
<stop offset="1" stop-color="#4B4B55" stop-opacity="0"/>
</linearGradient>
<linearGradient id="paint15_linear_5273_247338" x1="12.2258" y1="12.4512" x2="12.2258" y2="13.834" gradientUnits="userSpaceOnUse">
<stop stop-color="#4B4B55"/>
<stop offset="1" stop-color="#4B4B55" stop-opacity="0"/>
</linearGradient>
<linearGradient id="paint16_linear_5273_247338" x1="14.6291" y1="10.9268" x2="14.6291" y2="14.2908" gradientUnits="userSpaceOnUse">
<stop stop-color="#4B4B55"/>
<stop offset="1" stop-color="#4B4B55" stop-opacity="0"/>
</linearGradient>
<linearGradient id="paint17_linear_5273_247338" x1="11.9443" y1="14.6592" x2="11.9443" y2="18.5034" gradientUnits="userSpaceOnUse">
<stop stop-color="#06EA9E"/>
<stop offset="1" stop-color="#06EA9E" stop-opacity="0"/>
</linearGradient>
<linearGradient id="paint18_linear_5273_247338" x1="12.1544" y1="16.3027" x2="12.1544" y2="19.7894" gradientUnits="userSpaceOnUse">
<stop stop-color="#06EA9E"/>
<stop offset="1" stop-color="#06EA9E" stop-opacity="0"/>
</linearGradient>
<linearGradient id="paint19_linear_5273_247338" x1="12.0422" y1="19.0713" x2="12.0422" y2="21.9106" gradientUnits="userSpaceOnUse">
<stop stop-color="#4B4B55"/>
<stop offset="1" stop-color="#4B4B55" stop-opacity="0"/>
</linearGradient>
<linearGradient id="paint20_linear_5273_247338" x1="14.0602" y1="21.6768" x2="14.0602" y2="23.9687" gradientUnits="userSpaceOnUse">
<stop stop-color="#4B4B55"/>
<stop offset="1" stop-color="#4B4B55" stop-opacity="0"/>
</linearGradient>
<linearGradient id="paint21_linear_5273_247338" x1="13.938" y1="23.8594" x2="13.938" y2="26.6969" gradientUnits="userSpaceOnUse">
<stop stop-color="#4B4B55"/>
<stop offset="1" stop-color="#4B4B55" stop-opacity="0"/>
</linearGradient>
<linearGradient id="paint22_linear_5273_247338" x1="14.0319" y1="26.8008" x2="14.0319" y2="30.6469" gradientUnits="userSpaceOnUse">
<stop stop-color="#4B4B55"/>
<stop offset="1" stop-color="#4B4B55" stop-opacity="0"/>
</linearGradient>
<linearGradient id="paint23_linear_5273_247338" x1="14.3252" y1="30.7031" x2="14.3252" y2="37.398" gradientUnits="userSpaceOnUse">
<stop stop-color="#4B4B55"/>
<stop offset="1" stop-color="#4B4B55" stop-opacity="0"/>
</linearGradient>
<linearGradient id="paint24_linear_5273_247338" x1="19.4772" y1="12.4512" x2="19.4772" y2="13.834" gradientUnits="userSpaceOnUse">
<stop stop-color="#4B4B55"/>
<stop offset="1" stop-color="#4B4B55" stop-opacity="0"/>
</linearGradient>
<linearGradient id="paint25_linear_5273_247338" x1="17.1585" y1="10.9268" x2="17.1585" y2="14.2908" gradientUnits="userSpaceOnUse">
<stop stop-color="#4B4B55"/>
<stop offset="1" stop-color="#4B4B55" stop-opacity="0"/>
</linearGradient>
<linearGradient id="paint26_linear_5273_247338" x1="19.9282" y1="14.6592" x2="19.9282" y2="18.5034" gradientUnits="userSpaceOnUse">
<stop stop-color="#06EA9E"/>
<stop offset="1" stop-color="#06EA9E" stop-opacity="0"/>
</linearGradient>
<linearGradient id="paint27_linear_5273_247338" x1="19.7179" y1="16.3027" x2="19.7179" y2="19.7894" gradientUnits="userSpaceOnUse">
<stop stop-color="#06EA9E"/>
<stop offset="1" stop-color="#06EA9E" stop-opacity="0"/>
</linearGradient>
<linearGradient id="paint28_linear_5273_247338" x1="19.8308" y1="19.0713" x2="19.8308" y2="21.9106" gradientUnits="userSpaceOnUse">
<stop stop-color="#4B4B55"/>
<stop offset="1" stop-color="#4B4B55" stop-opacity="0"/>
</linearGradient>
<linearGradient id="paint29_linear_5273_247338" x1="17.8127" y1="21.6768" x2="17.8127" y2="23.9687" gradientUnits="userSpaceOnUse">
<stop stop-color="#4B4B55"/>
<stop offset="1" stop-color="#4B4B55" stop-opacity="0"/>
</linearGradient>
<linearGradient id="paint30_linear_5273_247338" x1="17.9345" y1="23.8594" x2="17.9345" y2="26.6969" gradientUnits="userSpaceOnUse">
<stop stop-color="#4B4B55"/>
<stop offset="1" stop-color="#4B4B55" stop-opacity="0"/>
</linearGradient>
<linearGradient id="paint31_linear_5273_247338" x1="17.841" y1="26.8008" x2="17.841" y2="30.6469" gradientUnits="userSpaceOnUse">
<stop stop-color="#4B4B55"/>
<stop offset="1" stop-color="#4B4B55" stop-opacity="0"/>
</linearGradient>
<linearGradient id="paint32_linear_5273_247338" x1="17.5473" y1="30.7031" x2="17.5473" y2="37.398" gradientUnits="userSpaceOnUse">
<stop stop-color="#4B4B55"/>
<stop offset="1" stop-color="#4B4B55" stop-opacity="0"/>
</linearGradient>
<linearGradient id="paint33_linear_5273_247338" x1="10.6939" y1="22.374" x2="10.6939" y2="24.7268" gradientUnits="userSpaceOnUse">
<stop stop-color="#4B4B55"/>
<stop offset="1" stop-color="#4B4B55" stop-opacity="0"/>
</linearGradient>
<linearGradient id="paint34_linear_5273_247338" x1="10.737" y1="23.2363" x2="10.737" y2="29.4428" gradientUnits="userSpaceOnUse">
<stop stop-color="#4B4B55"/>
<stop offset="1" stop-color="#4B4B55" stop-opacity="0"/>
</linearGradient>
<linearGradient id="paint35_linear_5273_247338" x1="11.6965" y1="28.8164" x2="11.6965" y2="33.9122" gradientUnits="userSpaceOnUse">
<stop stop-color="#4B4B55"/>
<stop offset="1" stop-color="#4B4B55" stop-opacity="0"/>
</linearGradient>
<linearGradient id="paint36_linear_5273_247338" x1="21.2027" y1="22.374" x2="21.2027" y2="24.7268" gradientUnits="userSpaceOnUse">
<stop stop-color="#4B4B55"/>
<stop offset="1" stop-color="#4B4B55" stop-opacity="0"/>
</linearGradient>
<linearGradient id="paint37_linear_5273_247338" x1="21.1594" y1="23.2363" x2="21.1594" y2="29.4428" gradientUnits="userSpaceOnUse">
<stop stop-color="#4B4B55"/>
<stop offset="1" stop-color="#4B4B55" stop-opacity="0"/>
</linearGradient>
<linearGradient id="paint38_linear_5273_247338" x1="20.2009" y1="28.8164" x2="20.2009" y2="33.9122" gradientUnits="userSpaceOnUse">
<stop stop-color="#4B4B55"/>
<stop offset="1" stop-color="#4B4B55" stop-opacity="0"/>
</linearGradient>
<clipPath id="clip0_5273_247338">
<rect width="32" height="32" rx="8" fill="white"/>
</clipPath>
<clipPath id="clip1_5273_247338">
<rect x="2.2998" width="27.4038" height="38" fill="white"/>
</clipPath>
</defs>
</svg>
