<svg width="19" height="19" viewBox="0 0 19 19" fill="none" xmlns="http://www.w3.org/2000/svg">
<path d="M14.0002 8.33326L10.6669 4.99993M1.0835 17.9166L3.9038 17.6032C4.24838 17.5649 4.42067 17.5458 4.5817 17.4937C4.72457 17.4474 4.86054 17.3821 4.9859 17.2994C5.12721 17.2062 5.24978 17.0836 5.49493 16.8385L16.5002 5.83326C17.4207 4.91279 17.4207 3.4204 16.5002 2.49993C15.5797 1.57945 14.0873 1.57945 13.1669 2.49992L2.1616 13.5052C1.91645 13.7503 1.79388 13.8729 1.70069 14.0142C1.61802 14.1396 1.55268 14.2755 1.50642 14.4184C1.45429 14.5794 1.43515 14.7517 1.39686 15.0963L1.0835 17.9166Z" stroke="#70707B" stroke-width="1.66667" stroke-linecap="round" stroke-linejoin="round"/>
</svg>
